<svg width="75" height="85" viewBox="0 0 75 85" fill="none" xmlns="http://www.w3.org/2000/svg">
<path d="M14.625 85H70.375C72.5841 85 74.375 83.2091 74.375 81V22.943C74.375 21.8608 73.9365 20.8248 73.1596 20.0714L53.6246 1.1284C52.8783 0.404714 51.8796 0 50.84 0H14.625C12.4159 0 10.625 1.79086 10.625 4V81C10.625 83.2091 12.4159 85 14.625 85Z" fill="#9DCB3B"/>
<mask id="mask0" mask-type="alpha" maskUnits="userSpaceOnUse" x="10" y="0" width="65" height="85">
<path d="M18.625 85H66.375C70.7933 85 74.375 81.4183 74.375 77V24.636C74.375 22.4716 73.498 20.3996 71.9442 18.8928L54.7883 2.2568C53.2957 0.809427 51.2982 0 49.2191 0H18.625C14.2067 0 10.625 3.58172 10.625 8V77C10.625 81.4183 14.2067 85 18.625 85Z" fill="#27AE60"/>
</mask>
<g mask="url(#mask0)">
<path d="M51.7969 16.9141V-1.99219H72.0312C74.7927 -1.99219 77.0312 0.246388 77.0312 3.00781V21.9141H56.7969C54.0355 21.9141 51.7969 19.6755 51.7969 16.9141Z" fill="#8EAD39"/>
</g>
<rect y="29.2188" width="55.7812" height="29.2188" rx="6" fill="#8EAD39"/>
<path d="M14.396 48.1919C15.0991 48.1919 15.6704 47.9985 16.1099 47.6118C16.5493 47.2251 16.7778 46.7109 16.7954 46.0693H20.3682C20.3594 47.0361 20.0957 47.9238 19.5771 48.7324C19.0586 49.5322 18.3467 50.1562 17.4414 50.6045C16.5449 51.0439 15.5518 51.2637 14.4619 51.2637C12.4229 51.2637 10.8145 50.6177 9.63672 49.3257C8.45898 48.0249 7.87012 46.2319 7.87012 43.9468V43.6963C7.87012 41.499 8.45459 39.7456 9.62354 38.436C10.7925 37.1265 12.3965 36.4717 14.4355 36.4717C16.2197 36.4717 17.6479 36.9814 18.7202 38.001C19.8013 39.0117 20.3506 40.3608 20.3682 42.0483H16.7954C16.7778 41.3101 16.5493 40.7124 16.1099 40.2554C15.6704 39.7896 15.0903 39.5566 14.3696 39.5566C13.4819 39.5566 12.8096 39.8818 12.3525 40.5322C11.9043 41.1738 11.6802 42.2197 11.6802 43.6699V44.0654C11.6802 45.5332 11.9043 46.5879 12.3525 47.2295C12.8008 47.8711 13.4819 48.1919 14.396 48.1919ZM30.269 47.0581C30.269 46.5923 30.0361 46.2275 29.5703 45.9639C29.1133 45.6914 28.375 45.4497 27.3555 45.2388C23.9629 44.5269 22.2666 43.0854 22.2666 40.9146C22.2666 39.6489 22.7896 38.5942 23.8354 37.7505C24.8901 36.8979 26.2656 36.4717 27.9619 36.4717C29.7725 36.4717 31.2183 36.8979 32.2993 37.7505C33.3892 38.603 33.9341 39.7104 33.9341 41.0728H30.124C30.124 40.5278 29.9482 40.0796 29.5967 39.728C29.2451 39.3677 28.6958 39.1875 27.9487 39.1875C27.3071 39.1875 26.8105 39.3325 26.459 39.6226C26.1074 39.9126 25.9316 40.2817 25.9316 40.73C25.9316 41.1519 26.1294 41.4946 26.5249 41.7583C26.9292 42.0132 27.606 42.2373 28.5552 42.4307C29.5044 42.6152 30.3042 42.8262 30.9546 43.0635C32.9673 43.8018 33.9736 45.0806 33.9736 46.8999C33.9736 48.2007 33.4155 49.2554 32.2993 50.064C31.1831 50.8638 29.7417 51.2637 27.9751 51.2637C26.7798 51.2637 25.7163 51.0527 24.7847 50.6309C23.8618 50.2002 23.1367 49.6157 22.6094 48.8774C22.082 48.1304 21.8184 47.3262 21.8184 46.4648H25.4307C25.4658 47.1416 25.7163 47.6602 26.1821 48.0205C26.6479 48.3809 27.272 48.561 28.0542 48.561C28.7837 48.561 29.333 48.4248 29.7021 48.1523C30.0801 47.8711 30.269 47.5063 30.269 47.0581ZM41.7783 46.3462L44.4282 36.7354H48.4097L43.5977 51H39.959L35.147 36.7354H39.1284L41.7783 46.3462Z" fill="white"/>
</svg>
